<mxfile host="Electron" agent="Mozilla/5.0 (Windows NT 10.0; Win64; x64) AppleWebKit/537.36 (KHTML, like Gecko) draw.io/28.0.6 Chrome/138.0.7204.100 Electron/37.2.3 Safari/537.36" version="28.0.6">
  <diagram name="Page-1" id="8NWkZT1DCMUcKtXngkBW">
    <mxGraphModel dx="595" dy="385" grid="1" gridSize="10" guides="1" tooltips="1" connect="1" arrows="1" fold="1" page="1" pageScale="1" pageWidth="850" pageHeight="1100" math="0" shadow="0">
      <root>
        <mxCell id="0" />
        <mxCell id="1" parent="0" />
        <mxCell id="VLjXdjF2IvUsFoLUm-vr-32" value="" style="rounded=0;whiteSpace=wrap;html=1;fillColor=none;strokeColor=#660033;" vertex="1" parent="1">
          <mxGeometry x="422.25" y="170" width="117" height="304" as="geometry" />
        </mxCell>
        <mxCell id="E_TXU0RTSyX3121y9cq--1" value="" style="rounded=0;whiteSpace=wrap;html=1;dashed=1;fillColor=none;movable=1;resizable=1;rotatable=1;deletable=1;editable=1;locked=0;connectable=1;" parent="1" vertex="1">
          <mxGeometry x="40" y="155" width="130" height="405" as="geometry" />
        </mxCell>
        <mxCell id="E_TXU0RTSyX3121y9cq--2" value="&lt;font style=&quot;font-size: 16px;&quot;&gt;&lt;b&gt;Sources&lt;/b&gt;&lt;/font&gt;" style="rounded=0;whiteSpace=wrap;html=1;strokeColor=none;" parent="1" vertex="1">
          <mxGeometry x="60" y="130" width="90" height="50" as="geometry" />
        </mxCell>
        <mxCell id="E_TXU0RTSyX3121y9cq--25" style="edgeStyle=orthogonalEdgeStyle;rounded=0;orthogonalLoop=1;jettySize=auto;html=1;entryX=0;entryY=0.5;entryDx=0;entryDy=0;" parent="1" source="E_TXU0RTSyX3121y9cq--3" target="E_TXU0RTSyX3121y9cq--21" edge="1">
          <mxGeometry relative="1" as="geometry" />
        </mxCell>
        <mxCell id="E_TXU0RTSyX3121y9cq--26" style="edgeStyle=orthogonalEdgeStyle;rounded=0;orthogonalLoop=1;jettySize=auto;html=1;entryX=0;entryY=0.5;entryDx=0;entryDy=0;" parent="1" source="E_TXU0RTSyX3121y9cq--3" target="E_TXU0RTSyX3121y9cq--22" edge="1">
          <mxGeometry relative="1" as="geometry" />
        </mxCell>
        <mxCell id="E_TXU0RTSyX3121y9cq--3" value="&lt;b&gt;CRM&lt;/b&gt;" style="image;aspect=fixed;html=1;points=[];align=center;fontSize=12;image=img/lib/azure2/general/Folder_Blank.svg;" parent="1" vertex="1">
          <mxGeometry x="81.81" y="234" width="35.29" height="28.64" as="geometry" />
        </mxCell>
        <mxCell id="E_TXU0RTSyX3121y9cq--4" value="" style="image;aspect=fixed;html=1;points=[];align=center;fontSize=12;image=img/lib/azure2/general/Media_File.svg;" parent="1" vertex="1">
          <mxGeometry x="106.40000000000003" y="250.64" width="16.25" height="20" as="geometry" />
        </mxCell>
        <mxCell id="E_TXU0RTSyX3121y9cq--30" style="edgeStyle=orthogonalEdgeStyle;rounded=0;orthogonalLoop=1;jettySize=auto;html=1;" parent="1" source="E_TXU0RTSyX3121y9cq--5" target="E_TXU0RTSyX3121y9cq--27" edge="1">
          <mxGeometry relative="1" as="geometry" />
        </mxCell>
        <mxCell id="E_TXU0RTSyX3121y9cq--31" style="edgeStyle=orthogonalEdgeStyle;rounded=0;orthogonalLoop=1;jettySize=auto;html=1;entryX=0;entryY=0.5;entryDx=0;entryDy=0;" parent="1" source="E_TXU0RTSyX3121y9cq--5" target="E_TXU0RTSyX3121y9cq--28" edge="1">
          <mxGeometry relative="1" as="geometry" />
        </mxCell>
        <mxCell id="E_TXU0RTSyX3121y9cq--32" style="edgeStyle=orthogonalEdgeStyle;rounded=0;orthogonalLoop=1;jettySize=auto;html=1;entryX=0;entryY=0.5;entryDx=0;entryDy=0;" parent="1" source="E_TXU0RTSyX3121y9cq--5" target="E_TXU0RTSyX3121y9cq--29" edge="1">
          <mxGeometry relative="1" as="geometry" />
        </mxCell>
        <mxCell id="E_TXU0RTSyX3121y9cq--5" value="&lt;b&gt;ERP&lt;/b&gt;" style="image;aspect=fixed;html=1;points=[];align=center;fontSize=12;image=img/lib/azure2/general/Folder_Blank.svg;" parent="1" vertex="1">
          <mxGeometry x="87.36" y="360.64" width="35.29" height="28.64" as="geometry" />
        </mxCell>
        <mxCell id="E_TXU0RTSyX3121y9cq--6" value="" style="image;aspect=fixed;html=1;points=[];align=center;fontSize=12;image=img/lib/azure2/general/Media_File.svg;" parent="1" vertex="1">
          <mxGeometry x="106.40000000000002" y="376.28" width="16.25" height="20" as="geometry" />
        </mxCell>
        <mxCell id="E_TXU0RTSyX3121y9cq--10" value="&lt;b&gt;Bronze Layer&lt;/b&gt;" style="rounded=0;whiteSpace=wrap;html=1;fillColor=#ffe6cc;strokeColor=#d79b00;" parent="1" vertex="1">
          <mxGeometry x="250" y="140" width="117" height="30" as="geometry" />
        </mxCell>
        <mxCell id="E_TXU0RTSyX3121y9cq--11" value="" style="rounded=0;whiteSpace=wrap;html=1;fillColor=none;strokeColor=#660033;" parent="1" vertex="1">
          <mxGeometry x="250" y="176" width="117" height="304" as="geometry" />
        </mxCell>
        <mxCell id="VLjXdjF2IvUsFoLUm-vr-20" style="edgeStyle=orthogonalEdgeStyle;rounded=0;orthogonalLoop=1;jettySize=auto;html=1;entryX=0;entryY=0.5;entryDx=0;entryDy=0;" edge="1" parent="1" source="E_TXU0RTSyX3121y9cq--20" target="ZWmkxUl-d9QEibVxz9GA-11">
          <mxGeometry relative="1" as="geometry" />
        </mxCell>
        <mxCell id="E_TXU0RTSyX3121y9cq--20" value="&lt;font style=&quot;font-size: 10px;&quot;&gt;crm_sales_details&lt;/font&gt;" style="rounded=0;whiteSpace=wrap;html=1;fillColor=#ffe6cc;strokeColor=#d79b00;" parent="1" vertex="1">
          <mxGeometry x="258.5" y="210" width="100" height="30" as="geometry" />
        </mxCell>
        <mxCell id="VLjXdjF2IvUsFoLUm-vr-21" style="edgeStyle=orthogonalEdgeStyle;rounded=0;orthogonalLoop=1;jettySize=auto;html=1;" edge="1" parent="1" source="E_TXU0RTSyX3121y9cq--21">
          <mxGeometry relative="1" as="geometry">
            <mxPoint x="430" y="260.64" as="targetPoint" />
          </mxGeometry>
        </mxCell>
        <mxCell id="E_TXU0RTSyX3121y9cq--21" value="&lt;font style=&quot;font-size: 10px;&quot;&gt;crm_product_info&lt;/font&gt;" style="rounded=0;whiteSpace=wrap;html=1;fillColor=#ffe6cc;strokeColor=#d79b00;" parent="1" vertex="1">
          <mxGeometry x="258.5" y="245.64" width="100" height="30" as="geometry" />
        </mxCell>
        <mxCell id="VLjXdjF2IvUsFoLUm-vr-27" style="edgeStyle=orthogonalEdgeStyle;rounded=0;orthogonalLoop=1;jettySize=auto;html=1;" edge="1" parent="1" source="E_TXU0RTSyX3121y9cq--22">
          <mxGeometry relative="1" as="geometry">
            <mxPoint x="432.2000209263392" y="294.99998256138394" as="targetPoint" />
          </mxGeometry>
        </mxCell>
        <mxCell id="E_TXU0RTSyX3121y9cq--22" value="&lt;font style=&quot;font-size: 10px;&quot;&gt;crm_cust_info&amp;nbsp;&amp;nbsp;&lt;/font&gt;" style="rounded=0;whiteSpace=wrap;html=1;fillColor=#ffe6cc;strokeColor=#d79b00;" parent="1" vertex="1">
          <mxGeometry x="258.5" y="280" width="100" height="30" as="geometry" />
        </mxCell>
        <mxCell id="E_TXU0RTSyX3121y9cq--24" style="edgeStyle=orthogonalEdgeStyle;rounded=0;orthogonalLoop=1;jettySize=auto;html=1;entryX=0.029;entryY=0.629;entryDx=0;entryDy=0;entryPerimeter=0;" parent="1" source="E_TXU0RTSyX3121y9cq--3" target="E_TXU0RTSyX3121y9cq--20" edge="1">
          <mxGeometry relative="1" as="geometry" />
        </mxCell>
        <mxCell id="VLjXdjF2IvUsFoLUm-vr-29" style="edgeStyle=orthogonalEdgeStyle;rounded=0;orthogonalLoop=1;jettySize=auto;html=1;" edge="1" parent="1" source="E_TXU0RTSyX3121y9cq--27">
          <mxGeometry relative="1" as="geometry">
            <mxPoint x="430" y="345.64" as="targetPoint" />
          </mxGeometry>
        </mxCell>
        <mxCell id="E_TXU0RTSyX3121y9cq--27" value="&lt;font style=&quot;font-size: 10px;&quot;&gt;erp_customrs&lt;/font&gt;" style="rounded=0;whiteSpace=wrap;html=1;fillColor=#ffe6cc;strokeColor=#d79b00;" parent="1" vertex="1">
          <mxGeometry x="258.5" y="330.64" width="100" height="30" as="geometry" />
        </mxCell>
        <mxCell id="VLjXdjF2IvUsFoLUm-vr-30" style="edgeStyle=orthogonalEdgeStyle;rounded=0;orthogonalLoop=1;jettySize=auto;html=1;" edge="1" parent="1" source="E_TXU0RTSyX3121y9cq--28" target="ZWmkxUl-d9QEibVxz9GA-15">
          <mxGeometry relative="1" as="geometry">
            <Array as="points">
              <mxPoint x="380" y="385" />
              <mxPoint x="380" y="385" />
            </Array>
          </mxGeometry>
        </mxCell>
        <mxCell id="E_TXU0RTSyX3121y9cq--28" value="&lt;font style=&quot;font-size: 10px;&quot;&gt;erp_location&lt;/font&gt;" style="rounded=0;whiteSpace=wrap;html=1;fillColor=#ffe6cc;strokeColor=#d79b00;" parent="1" vertex="1">
          <mxGeometry x="258.5" y="366.28" width="100" height="30" as="geometry" />
        </mxCell>
        <mxCell id="VLjXdjF2IvUsFoLUm-vr-31" style="edgeStyle=orthogonalEdgeStyle;rounded=0;orthogonalLoop=1;jettySize=auto;html=1;" edge="1" parent="1" source="E_TXU0RTSyX3121y9cq--29" target="ZWmkxUl-d9QEibVxz9GA-16">
          <mxGeometry relative="1" as="geometry">
            <Array as="points">
              <mxPoint x="380" y="420" />
              <mxPoint x="380" y="420" />
            </Array>
          </mxGeometry>
        </mxCell>
        <mxCell id="E_TXU0RTSyX3121y9cq--29" value="&lt;font style=&quot;font-size: 10px;&quot;&gt;erp_category&lt;/font&gt;" style="rounded=0;whiteSpace=wrap;html=1;fillColor=#ffe6cc;strokeColor=#d79b00;" parent="1" vertex="1">
          <mxGeometry x="258.5" y="400.64" width="100" height="30" as="geometry" />
        </mxCell>
        <mxCell id="ZWmkxUl-d9QEibVxz9GA-9" value="&lt;b&gt;Silver Layer&lt;/b&gt;" style="rounded=0;whiteSpace=wrap;html=1;fillColor=#f5f5f5;strokeColor=#EEECF1;fontColor=#333333;" parent="1" vertex="1">
          <mxGeometry x="423" y="140" width="117" height="30" as="geometry" />
        </mxCell>
        <mxCell id="VLjXdjF2IvUsFoLUm-vr-9" style="edgeStyle=orthogonalEdgeStyle;rounded=0;orthogonalLoop=1;jettySize=auto;html=1;" edge="1" parent="1" source="ZWmkxUl-d9QEibVxz9GA-11" target="VLjXdjF2IvUsFoLUm-vr-3">
          <mxGeometry relative="1" as="geometry" />
        </mxCell>
        <mxCell id="ZWmkxUl-d9QEibVxz9GA-11" value="&lt;font style=&quot;font-size: 10px;&quot;&gt;crm_sales_details&lt;/font&gt;" style="rounded=0;whiteSpace=wrap;html=1;fillColor=#f5f5f5;strokeColor=#EEECF1;fontColor=#333333;" parent="1" vertex="1">
          <mxGeometry x="431.5" y="210" width="100" height="30" as="geometry" />
        </mxCell>
        <mxCell id="VLjXdjF2IvUsFoLUm-vr-33" style="edgeStyle=orthogonalEdgeStyle;rounded=0;orthogonalLoop=1;jettySize=auto;html=1;entryX=0;entryY=0.75;entryDx=0;entryDy=0;" edge="1" parent="1" source="ZWmkxUl-d9QEibVxz9GA-12" target="VLjXdjF2IvUsFoLUm-vr-5">
          <mxGeometry relative="1" as="geometry" />
        </mxCell>
        <mxCell id="ZWmkxUl-d9QEibVxz9GA-12" value="&lt;font style=&quot;font-size: 10px;&quot;&gt;crm_product_info&lt;/font&gt;" style="rounded=0;whiteSpace=wrap;html=1;fillColor=#f5f5f5;strokeColor=#EEECF1;fontColor=#333333;" parent="1" vertex="1">
          <mxGeometry x="431.5" y="243.64" width="100" height="30" as="geometry" />
        </mxCell>
        <mxCell id="ZWmkxUl-d9QEibVxz9GA-13" value="&lt;font style=&quot;font-size: 10px;&quot;&gt;crm_cust_info&amp;nbsp;&amp;nbsp;&lt;/font&gt;" style="rounded=0;whiteSpace=wrap;html=1;fillColor=#f5f5f5;strokeColor=#EEECF1;fontColor=#333333;" parent="1" vertex="1">
          <mxGeometry x="431.5" y="336.28" width="100" height="30" as="geometry" />
        </mxCell>
        <mxCell id="VLjXdjF2IvUsFoLUm-vr-37" style="edgeStyle=orthogonalEdgeStyle;rounded=0;orthogonalLoop=1;jettySize=auto;html=1;entryX=0.5;entryY=0;entryDx=0;entryDy=0;" edge="1" parent="1" source="ZWmkxUl-d9QEibVxz9GA-14" target="VLjXdjF2IvUsFoLUm-vr-4">
          <mxGeometry relative="1" as="geometry" />
        </mxCell>
        <mxCell id="ZWmkxUl-d9QEibVxz9GA-14" value="&lt;font style=&quot;font-size: 10px;&quot;&gt;erp_customers&lt;/font&gt;" style="rounded=0;whiteSpace=wrap;html=1;fillColor=#f5f5f5;strokeColor=#EEECF1;fontColor=#333333;" parent="1" vertex="1">
          <mxGeometry x="430" y="277" width="101.5" height="30" as="geometry" />
        </mxCell>
        <mxCell id="VLjXdjF2IvUsFoLUm-vr-35" style="edgeStyle=orthogonalEdgeStyle;rounded=0;orthogonalLoop=1;jettySize=auto;html=1;" edge="1" parent="1" source="ZWmkxUl-d9QEibVxz9GA-15" target="VLjXdjF2IvUsFoLUm-vr-4">
          <mxGeometry relative="1" as="geometry" />
        </mxCell>
        <mxCell id="ZWmkxUl-d9QEibVxz9GA-15" value="&lt;font style=&quot;font-size: 10px;&quot;&gt;erp_location&lt;/font&gt;" style="rounded=0;whiteSpace=wrap;html=1;fillColor=#f5f5f5;strokeColor=#EEECF1;fontColor=#333333;" parent="1" vertex="1">
          <mxGeometry x="430" y="370.28" width="100" height="30" as="geometry" />
        </mxCell>
        <mxCell id="VLjXdjF2IvUsFoLUm-vr-34" style="edgeStyle=orthogonalEdgeStyle;rounded=0;orthogonalLoop=1;jettySize=auto;html=1;entryX=0.5;entryY=1;entryDx=0;entryDy=0;" edge="1" parent="1" source="ZWmkxUl-d9QEibVxz9GA-16" target="VLjXdjF2IvUsFoLUm-vr-5">
          <mxGeometry relative="1" as="geometry" />
        </mxCell>
        <mxCell id="ZWmkxUl-d9QEibVxz9GA-16" value="&lt;font style=&quot;font-size: 10px;&quot;&gt;erp_category&lt;/font&gt;" style="rounded=0;whiteSpace=wrap;html=1;fillColor=#f5f5f5;strokeColor=#EEECF1;fontColor=#333333;" parent="1" vertex="1">
          <mxGeometry x="431.5" y="404" width="100" height="31.28" as="geometry" />
        </mxCell>
        <mxCell id="VLjXdjF2IvUsFoLUm-vr-1" value="&lt;b&gt;Gold Layer&lt;/b&gt;" style="rounded=0;whiteSpace=wrap;html=1;fillColor=#fff2cc;strokeColor=#d6b656;" vertex="1" parent="1">
          <mxGeometry x="630" y="140" width="117" height="30" as="geometry" />
        </mxCell>
        <mxCell id="VLjXdjF2IvUsFoLUm-vr-2" value="" style="rounded=0;whiteSpace=wrap;html=1;fillColor=none;strokeColor=#660033;" vertex="1" parent="1">
          <mxGeometry x="630" y="176" width="117" height="304" as="geometry" />
        </mxCell>
        <mxCell id="VLjXdjF2IvUsFoLUm-vr-3" value="&lt;font style=&quot;font-size: 10px;&quot;&gt;fact_salse&lt;/font&gt;" style="rounded=0;whiteSpace=wrap;html=1;fillColor=#f5f5f5;strokeColor=#EEECF1;fontColor=#333333;" vertex="1" parent="1">
          <mxGeometry x="650" y="210" width="88.5" height="30" as="geometry" />
        </mxCell>
        <mxCell id="VLjXdjF2IvUsFoLUm-vr-4" value="&lt;font style=&quot;font-size: 10px;&quot;&gt;dim_customers&lt;/font&gt;" style="rounded=0;whiteSpace=wrap;html=1;fillColor=#f5f5f5;strokeColor=#EEECF1;fontColor=#333333;" vertex="1" parent="1">
          <mxGeometry x="644.25" y="301.68" width="88.5" height="40.64" as="geometry" />
        </mxCell>
        <mxCell id="VLjXdjF2IvUsFoLUm-vr-5" value="&lt;font style=&quot;font-size: 10px;&quot;&gt;dim_products&lt;/font&gt;" style="rounded=0;whiteSpace=wrap;html=1;fillColor=#f5f5f5;strokeColor=#EEECF1;fontColor=#333333;" vertex="1" parent="1">
          <mxGeometry x="645.5" y="389.28" width="93" height="30" as="geometry" />
        </mxCell>
        <mxCell id="VLjXdjF2IvUsFoLUm-vr-36" style="edgeStyle=orthogonalEdgeStyle;rounded=0;orthogonalLoop=1;jettySize=auto;html=1;entryX=0.001;entryY=0.601;entryDx=0;entryDy=0;entryPerimeter=0;" edge="1" parent="1" source="ZWmkxUl-d9QEibVxz9GA-13" target="VLjXdjF2IvUsFoLUm-vr-4">
          <mxGeometry relative="1" as="geometry" />
        </mxCell>
      </root>
    </mxGraphModel>
  </diagram>
</mxfile>
